Land_normalized_Motion_pl10
version=1
nRows=10
nColumns=43
inDegrees=yes
endheader
time		pelvis_tilt		pelvis_list		pelvis_rotation		pelvis_tx		pelvis_ty		pelvis_tz		hip_flexion_r		hip_adduction_r		hip_rotation_r		knee_angle_r		ankle_angle_r		subtalar_angle_r		mtp_angle_r		hip_flexion_l		hip_adduction_l		hip_rotation_l		knee_angle_l		ankle_angle_l		subtalar_angle_l		mtp_angle_l		lumbar_extension		lumbar_bending		lumbar_rotation		neck_flexion		neck_lateral_bending		neck_rotation		arm_flex_r		arm_add_r		arm_rot_r		elbow_flex_r		pro_sup_r		wrist_flex_r		wrist_dev_r		hand_finger_flex_r		arm_flex_l		arm_add_l		arm_rot_l		elbow_flex_l		pro_sup_l		wrist_flex_l		wrist_dev_l		hand_finger_flex_l		
0.833182		0.522684		-2.933585		97.937228		-0.004557		0.673865		0.543699		58.974200		-10.378714		-11.606218		-79.320981		20.907249		-10.795184		5.300614		57.980408		-4.787014		-7.703253		-84.672482		24.352705		-3.070858		14.152490		-33.018375		-1.447264		0.078254		-6.042058		4.693236		-4.380944		-45.060161		-23.098290		-23.708794		44.298396		126.291499		-21.290839		-17.274966		-23.483131		-50.066937		-24.125017		-31.732127		64.271974		138.305138		-42.368922		-9.675114		-21.327230		
0.835909		0.427339		-3.458174		97.717313		-0.003866		0.664243		0.543148		61.126569		-10.164702		-10.839351		-81.640946		20.678115		-11.770243		5.033757		59.913101		-4.688462		-7.575246		-86.939939		24.062428		-4.222548		13.846736		-33.078632		-1.709077		0.202844		-5.277693		4.708991		-4.531355		-43.404361		-23.332257		-23.421372		44.661363		126.058271		-21.775506		-17.534103		-23.686647		-47.895746		-24.299286		-31.294996		64.391051		138.849644		-42.966095		-10.016093		-21.477929		
0.838636		0.348860		-3.598304		97.548501		-0.003112		0.655625		0.542491		62.725834		-9.964101		-10.232611		-83.849297		20.735755		-12.255031		4.922132		61.359883		-4.626828		-7.332461		-89.076354		24.046839		-4.827518		13.702961		-33.616992		-1.892916		0.291335		-4.274258		4.764395		-4.534188		-41.664835		-23.610548		-23.120890		45.145458		125.973367		-22.017018		-17.727600		-23.787853		-45.675686		-24.535396		-30.813031		64.638699		139.212920		-43.189370		-10.153380		-21.419954		
0.841364		0.261561		-3.654906		97.356499		-0.002431		0.647333		0.541805		64.210059		-9.733602		-9.593072		-86.013447		20.674676		-12.619348		4.889338		62.692003		-4.571080		-7.078238		-91.149057		23.908215		-5.390604		13.633687		-34.244449		-2.070794		0.432799		-3.302890		4.765901		-4.619714		-39.920350		-23.863087		-22.906484		45.652247		125.952680		-22.312737		-17.907119		-23.917584		-43.372965		-24.773784		-30.277284		64.902141		139.655853		-43.466535		-10.287083		-21.319883		
0.844091		0.179597		-3.583373		97.204600		-0.001841		0.639523		0.541045		65.496206		-9.510797		-8.955286		-88.088039		20.560636		-12.826243		4.901456		63.856741		-4.480835		-6.749735		-93.141446		23.755846		-5.759745		13.612376		-35.005174		-2.206225		0.559629		-2.392086		4.776836		-4.645618		-38.128583		-24.145383		-22.665229		46.161457		125.982060		-22.520178		-18.066201		-24.008255		-40.992819		-25.002553		-29.724315		65.202635		140.021939		-43.611067		-10.368538		-21.185887		
0.846818		0.113968		-3.369145		97.075002		-0.001239		0.632160		0.540217		66.602606		-9.306200		-8.376844		-90.124055		20.355739		-12.848055		4.956893		64.841237		-4.401600		-6.361135		-95.057292		23.550366		-5.948853		13.637533		-35.944986		-2.305312		0.652538		-1.338321		4.792568		-4.660232		-36.267610		-24.420267		-22.466899		46.717135		126.040478		-22.713839		-18.194231		-24.089410		-38.607475		-25.224304		-29.161317		65.557407		140.319785		-43.652079		-10.436884		-21.055732		
0.849545		0.002105		-3.105987		96.889834		-0.000683		0.624939		0.539320		67.677395		-9.052737		-7.683419		-92.128020		20.008244		-12.900740		5.132257		65.750171		-4.330324		-6.040442		-96.938209		23.189497		-6.348597		13.758084		-36.939549		-2.453548		0.831929		-0.320526		4.693331		-4.962594		-34.479148		-24.593814		-22.455354		47.307725		126.077097		-23.288195		-18.360719		-24.305692		-36.172159		-25.501133		-28.450644		65.900524		140.866822		-44.058294		-10.456090		-20.797239		
0.852273		-0.055604		-2.765261		96.825353		-0.000268		0.618257		0.538377		68.561134		-8.849686		-7.062766		-93.987471		19.742566		-12.814579		5.239173		66.534524		-4.168520		-5.562361		-98.700119		22.948363		-6.416966		13.840129		-37.982202		-2.495590		0.878022		0.482762		4.702117		-4.953430		-32.527726		-24.922312		-22.213352		47.828097		126.149718		-23.434860		-18.464383		-24.351946		-33.697959		-25.684416		-27.821860		66.282133		141.108380		-44.037152		-10.456650		-20.586357		
0.855000		-0.195863		-2.199893		96.741803		0.000132		0.612174		0.537440		69.192457		-8.680483		-6.387665		-95.799688		19.365665		-12.629874		5.795497		67.013205		-3.991891		-5.189400		-100.388893		22.464165		-6.827167		14.332094		-39.365665		-2.568816		1.056250		1.669690		4.536418		-5.425898		-30.700967		-25.096610		-22.126393		48.419644		126.117163		-24.377979		-18.599107		-24.600833		-30.959821		-26.054323		-26.804648		66.501536		141.720931		-44.802157		-10.168378		-19.787439		
0.857727		-0.188180		-1.743590		96.778629		0.000545		0.605983		0.536551		69.896987		-8.470736		-5.773428		-97.516370		18.763452		-12.379503		7.873316		67.676549		-3.796888		-4.575985		-102.055108		21.930424		-6.795366		16.418166		-40.554101		-2.515197		1.010935		2.620383		4.627041		-5.392909		-28.661633		-25.438263		-21.717601		48.999660		125.681284		-25.022869		-18.704566		-24.005864		-28.475787		-26.305693		-25.904059		66.867632		142.330138		-46.729065		-9.578210		-16.200270		
